# xmcd CD database file
#
# Track frame offsets:
#	150
#	21485
#	42687
#
# Disc length: 850 seconds
#
# Revision: 1
# Processed by: cddbd v1.5.2PL0 Copyright (c) Steve Scherf et al.
# Submitted via: CDex 1.81
#
DISCID=26035003
DTITLE=Tarja - Demons In You
DYEAR=2016
DGENRE=Symphonic/Power Metal
TTITLE0=Demons In You (with Alissa White-Gluz)
TTITLE1=Demons In You (Tarja solo version)
TTITLE2=Demons In You (Alissa lead vox version)
EXTD=YEAR: 2016
EXTT0=
EXTT1=
EXTT2=
PLAYORDER=
